<?xml version="1.0" standalone="no"?>
<!DOCTYPE svg PUBLIC "-//W3C//DTD SVG 20010904//EN"
 "http://www.w3.org/TR/2001/REC-SVG-20010904/DTD/svg10.dtd">
<svg version="1.0" xmlns="http://www.w3.org/2000/svg"
 width="975.000000pt" height="975.000000pt" viewBox="0 0 975.000000 975.000000"
 preserveAspectRatio="xMidYMid meet">
<metadata>
Created by potrace 1.14, written by Peter Selinger 2001-2017
</metadata>
<g transform="translate(0.000000,975.000000) scale(0.100000,-0.100000)"
fill="#000000" stroke="none">
<path d="M4525 9744 c-1031 -81 -1993 -468 -2770 -1115 -474 -395 -890 -902
-1173 -1429 l-51 -95 4 -315 c3 -173 8 -639 11 -1035 3 -396 6 -729 6 -740 1
-11 0 -108 -1 -215 -2 -183 -1 -195 16 -192 10 1 54 6 98 11 44 6 126 19 183
30 57 12 122 21 145 22 55 1 119 21 125 38 3 10 -1 12 -16 9 -12 -3 -26 0 -32
7 -9 11 -5 14 17 17 26 3 28 6 27 51 0 26 4 47 9 47 5 0 8 12 7 28 -3 32 10
92 19 93 3 0 16 2 27 5 31 5 52 -22 36 -47 -10 -15 -10 -22 0 -32 17 -18 66
-9 73 14 4 10 10 19 15 19 10 0 25 40 21 58 -1 8 3 20 10 28 8 10 8 14 0 14
-6 0 -11 4 -11 10 0 5 3 9 8 9 49 -8 73 23 26 35 -22 6 -25 11 -22 44 2 31 6
36 23 34 11 -2 22 -8 25 -12 3 -5 18 -12 34 -16 27 -6 29 -5 24 19 -4 18 0 27
12 30 15 4 16 12 10 51 -7 46 -2 58 27 62 6 1 14 -8 17 -21 4 -15 20 -28 51
-39 27 -11 46 -24 46 -34 1 -9 3 -24 3 -32 1 -8 5 -26 10 -39 9 -26 -12 -46
-49 -46 -13 0 -21 -7 -22 -20 -1 -11 -5 -44 -9 -72 l-7 -53 37 -15 c20 -8 52
-13 71 -11 19 3 37 0 40 -5 11 -17 23 -9 30 22 8 35 28 47 50 29 11 -9 15 -34
15 -91 l0 -79 38 1 c20 0 91 8 157 18 108 16 120 20 117 37 -8 50 -21 117 -26
132 -4 13 2 21 22 28 37 14 44 42 22 90 -18 38 -18 38 6 67 28 33 33 94 9 103
-9 4 -15 19 -15 35 0 16 -4 29 -8 29 -5 0 -26 27 -48 61 -29 46 -39 72 -40
105 -1 34 2 44 15 44 13 0 14 2 2 9 -12 8 -13 14 -3 37 l13 27 23 -22 c26 -25
38 -27 30 -6 -4 8 -1 15 5 15 17 0 -6 51 -35 78 -17 16 -31 21 -42 16 -18 -7
-19 -7 -104 -25 -44 -9 -58 -17 -58 -30 0 -9 5 -19 12 -21 14 -5 26 -93 17
-133 -4 -16 -8 -23 -9 -15 -1 8 -6 2 -9 -15 -7 -28 5 -73 16 -61 7 6 53 -40
53 -54 0 -5 5 -10 11 -10 6 0 9 6 6 13 -4 10 5 14 28 15 26 1 35 -4 40 -18 4
-11 12 -20 19 -20 6 0 12 -9 12 -20 0 -11 -4 -20 -9 -20 -5 0 -5 -6 1 -13 6
-7 12 -30 14 -50 1 -20 6 -37 11 -37 12 0 -3 -44 -20 -53 -7 -5 -11 -12 -8
-18 14 -21 -23 -7 -49 20 -15 15 -45 33 -66 40 -32 9 -40 17 -40 35 0 31 22
50 39 33 10 -9 10 -6 0 11 -8 12 -21 22 -29 22 -11 0 -12 2 -3 8 15 10 5 52
-12 52 -7 0 -18 7 -25 15 -19 23 -30 18 -30 -15 0 -16 3 -29 8 -27 4 1 9 -3
10 -8 2 -6 8 -15 13 -21 9 -11 2 -24 -13 -24 -5 0 -6 5 -3 10 3 6 1 10 -5 10
-6 0 -8 4 -5 10 3 5 0 7 -8 4 -19 -7 -29 48 -18 96 4 20 5 44 1 55 -4 11 -3
23 3 26 5 4 0 10 -11 13 -23 8 -40 45 -24 55 5 3 13 21 17 40 5 22 4 31 -3 27
-6 -3 -13 2 -15 11 -3 13 -5 14 -6 3 -1 -11 -11 -15 -37 -14 -22 1 -37 -3 -41
-12 -3 -8 -11 -14 -18 -14 -7 0 -16 -7 -19 -16 -5 -13 -15 -15 -52 -9 -32 4
-44 3 -39 -4 3 -6 1 -11 -4 -11 -6 0 -11 4 -11 10 0 11 -30 1 -46 -15 -6 -6
-10 -23 -8 -38 2 -22 -1 -27 -20 -27 -27 0 -40 14 -49 49 -4 18 -3 21 6 12 16
-16 37 -14 37 4 0 8 6 15 13 15 6 0 13 11 13 25 1 16 -2 23 -10 18 -6 -3 -6
-1 2 8 17 18 15 27 -5 32 -17 4 -17 5 0 6 10 1 17 9 17 21 0 22 -16 27 -23 8
-2 -7 -8 -9 -13 -5 -5 4 -3 12 4 16 10 6 10 15 2 35 -5 15 -8 32 -4 37 3 5 -4
9 -15 9 -12 0 -21 6 -21 13 0 6 -12 23 -26 36 -21 20 -27 22 -35 10 -5 -8 -9
-24 -9 -35 0 -17 5 -21 25 -18 17 1 29 -4 35 -17 9 -16 7 -19 -15 -19 -22 0
-25 -4 -22 -35 1 -23 6 -34 14 -30 7 2 13 -3 13 -11 0 -13 -6 -15 -27 -10 -16
4 -34 8 -41 9 -25 6 -42 46 -40 94 1 26 -6 72 -15 102 -20 63 -21 75 -7 66 12
-7 12 -4 1 52 -9 48 -10 48 79 58 l55 7 70 -71 c82 -82 121 -104 140 -77 16
21 14 33 -8 67 -14 21 -17 38 -11 78 4 34 10 48 18 44 6 -4 16 -8 21 -9 28 -5
85 -36 97 -51 11 -15 29 -18 108 -19 52 0 118 -3 145 -8 28 -4 45 -4 40 1 -17
13 -12 54 7 67 14 8 22 6 38 -11 24 -27 25 -48 4 -99 -12 -29 -15 -57 -11
-106 9 -101 39 -140 65 -83 11 23 16 25 47 19 49 -9 84 2 95 30 6 16 19 25 42
28 34 6 49 -5 46 -32 -1 -8 5 -28 14 -45 8 -16 19 -66 23 -110 9 -101 18 -125
48 -125 61 0 84 -53 72 -164 -5 -53 -10 -65 -30 -76 -13 -7 -27 -19 -30 -28
-12 -33 44 -61 71 -35 17 18 21 16 24 -12 4 -35 0 -45 -13 -39 -8 3 -24 -10
-38 -30 -20 -30 -30 -36 -64 -37 -123 -4 -161 -14 -187 -49 -13 -18 -31 -30
-44 -30 -19 0 -24 -7 -29 -37 -3 -21 -10 -58 -15 -82 -6 -24 -8 -46 -6 -49 3
-2 70 5 148 17 180 27 631 87 721 96 66 7 67 7 67 36 0 17 -5 39 -11 50 -5 11
-16 75 -24 142 -8 67 -23 158 -34 201 -12 44 -21 92 -21 108 0 31 -46 171 -67
204 -15 23 -6 89 18 137 18 37 59 62 90 54 35 -9 93 -125 105 -211 5 -35 9
-40 25 -30 15 9 5 348 -12 391 -20 50 -29 147 -16 155 8 6 6 10 -8 14 -22 5
-48 70 -37 89 13 20 10 35 -6 33 -12 -2 -16 3 -13 17 10 52 2 272 -13 363 -5
28 -4 42 3 42 6 0 11 7 11 15 0 8 5 15 10 15 7 0 7 6 0 19 -15 28 -12 51 6 51
8 0 12 5 9 10 -3 6 5 10 19 10 16 0 30 -8 37 -22 7 -13 11 -24 10 -26 -8 -8
14 -80 32 -106 14 -19 16 -27 6 -24 -21 7 -40 -62 -22 -80 11 -12 18 -11 39 3
14 9 35 14 46 12 11 -3 18 -3 15 0 -3 2 1 23 9 45 8 22 14 74 14 114 0 70 1
74 23 74 31 0 41 -10 54 -51 9 -33 8 -38 -13 -54 l-24 -18 26 -24 26 -23 38
30 c24 19 44 28 55 24 16 -7 50 21 50 42 0 28 52 164 64 169 29 11 43 -16 36
-72 -6 -57 0 -64 35 -35 50 41 18 172 -62 255 -21 22 -38 44 -38 51 0 6 4 5 9
-3 6 -9 10 -10 16 -2 4 7 2 17 -3 24 -5 7 -13 42 -17 80 -7 67 -6 68 25 97 52
49 115 96 106 80 -5 -8 8 3 27 25 22 24 39 55 42 77 6 33 11 39 43 48 21 5 44
10 53 10 9 0 27 8 40 18 13 11 31 19 39 20 8 0 37 5 65 10 40 8 51 7 60 -4 8
-12 16 -13 44 -3 20 7 28 14 21 19 -6 4 19 10 56 13 37 4 72 11 78 17 5 5 19
10 31 10 12 0 26 5 33 12 6 6 32 13 57 14 25 1 53 8 63 17 9 8 44 18 77 21
243 22 286 31 307 60 3 5 30 2 65 -7 33 -10 82 -17 110 -17 27 0 63 -4 79 -9
16 -6 61 -12 99 -15 271 -22 348 -36 414 -78 25 -15 53 -28 63 -28 10 0 18 -4
18 -10 0 -5 6 -10 14 -10 7 0 19 -6 25 -13 6 -8 30 -20 53 -28 24 -7 54 -19
68 -26 14 -7 33 -13 43 -13 11 0 17 -8 17 -25 0 -36 1 -39 20 -52 10 -7 23
-34 29 -60 7 -26 21 -61 31 -78 21 -34 28 -68 35 -171 5 -76 12 -104 25 -104
4 0 11 -16 14 -35 6 -31 10 -34 31 -29 18 4 27 1 31 -10 3 -9 12 -16 20 -16 7
0 18 -9 24 -20 6 -11 17 -20 25 -20 16 0 19 -18 6 -38 -6 -11 -10 -11 -18 0
-6 7 -13 20 -16 28 -3 11 -7 9 -14 -9 -7 -17 -12 -21 -17 -12 -5 7 -6 15 -3
18 3 2 1 18 -5 34 -13 38 -23 29 -20 -19 5 -56 12 -73 30 -70 9 2 17 -4 17
-12 0 -8 9 -15 20 -15 11 0 23 -4 27 -10 5 -6 8 -5 8 3 0 9 4 10 19 0 11 -7
17 -18 13 -27 -3 -9 -2 -13 3 -9 17 16 45 -66 43 -123 -2 -32 -6 -55 -9 -53
-3 2 -12 -15 -19 -37 -7 -22 -16 -36 -19 -32 -3 4 -21 18 -39 31 -25 18 -36
20 -52 12 -11 -6 -20 -8 -20 -4 0 3 -6 1 -13 -5 -10 -7 -13 -29 -11 -69 3 -66
17 -109 44 -134 20 -19 14 -24 186 158 50 54 97 77 152 76 49 -1 86 -27 104
-72 13 -34 13 -393 -1 -450 -6 -25 -11 -59 -11 -77 0 -17 -8 -39 -17 -48 -27
-28 -39 -129 -56 -475 l-2 -45 35 -1 c19 0 51 4 70 9 19 5 71 12 115 17 44 5
109 13 145 19 36 6 112 18 170 26 58 9 130 20 160 25 30 5 93 12 140 15 47 3
96 7 110 9 68 10 107 20 132 32 15 8 56 14 91 14 35 0 89 5 118 10 30 6 99 15
154 20 55 6 111 12 125 15 39 9 264 23 278 17 7 -2 18 1 26 7 7 6 16 7 21 3 4
-4 5 4 1 18 -17 56 -18 143 -6 466 6 187 15 457 19 600 5 194 10 266 20 277 7
9 16 16 19 15 28 -3 34 3 16 17 -19 14 -19 14 1 15 18 1 18 2 -2 10 -16 6 -23
18 -23 35 0 14 4 25 8 25 5 0 8 39 7 88 -1 48 -3 87 -4 87 -7 0 -10 44 -5 73
3 23 10 32 19 28 7 -2 16 1 18 8 3 9 15 12 31 9 15 -3 26 -1 26 6 0 6 7 11 15
11 8 0 15 -6 15 -12 0 -10 2 -10 9 0 12 19 146 52 214 52 31 0 57 5 57 10 0 6
17 10 38 10 70 0 70 10 6 101 -423 607 -926 1076 -1554 1452 -158 94 -484 254
-665 326 -402 158 -816 262 -1265 317 -129 16 -760 28 -895 18z m642 -1089 c0
-8 -4 -15 -8 -15 -4 0 -5 -9 -2 -19 4 -16 1 -19 -16 -14 -25 6 -27 18 -6 27 8
3 15 12 15 21 0 8 4 15 8 15 5 0 9 -7 9 -15z m873 -19 c0 -18 -15 -36 -31 -36
-21 0 -22 1 -13 24 5 14 44 24 44 12z m-1040 -25 c0 -4 19 -5 43 0 63 12 67
11 67 -15 0 -23 4 -25 75 -31 66 -7 78 -5 96 11 19 17 22 17 32 3 14 -19 57
-29 147 -34 45 -3 68 -9 76 -20 8 -10 14 -12 19 -6 8 14 62 14 71 0 3 -6 15
-8 27 -5 27 7 82 -5 66 -14 -19 -13 -2 -58 23 -62 13 -2 24 -11 26 -23 6 -29
32 -55 55 -55 11 0 33 15 48 33 24 27 30 30 39 17 5 -8 10 -26 10 -40 0 -29
52 -80 81 -80 18 0 21 -7 23 -55 1 -16 9 -21 39 -23 31 -3 48 -13 87 -54 27
-27 53 -48 58 -44 19 11 42 -32 55 -100 10 -55 16 -69 32 -72 11 -2 31 -14 45
-27 14 -12 37 -25 53 -29 34 -8 36 -38 3 -71 -13 -13 -26 -30 -28 -37 -4 -11
52 -183 68 -210 3 -5 15 -8 25 -5 24 7 54 -21 63 -58 4 -16 4 -27 0 -23 -13
13 -31 -25 -39 -79 -6 -43 -10 -53 -26 -53 -27 0 -31 -17 -19 -75 12 -56 12
-53 4 -113 -4 -26 -14 -48 -26 -56 -25 -18 -48 -10 -48 15 0 10 -6 33 -14 51
-20 46 -34 135 -24 150 13 21 9 91 -7 118 -8 14 -14 35 -15 47 0 47 -30 98
-73 124 -33 19 -42 32 -44 54 -2 44 -25 108 -44 125 -24 21 -34 60 -16 60 18
0 27 21 27 61 0 34 -17 38 -50 9 -12 -11 -25 -18 -29 -17 -53 24 -59 31 -66
75 -9 61 -23 72 -88 72 -31 0 -57 5 -59 11 -2 6 -21 11 -43 12 -34 1 -48 9
-100 59 -33 32 -65 58 -71 58 -13 0 -28 -46 -19 -60 11 -18 -25 -10 -45 10
-24 24 -26 58 -5 66 21 8 19 27 -4 49 -19 16 -21 16 -44 -9 -29 -31 -41 -32
-68 -7 -11 10 -28 17 -38 14 -26 -7 -86 30 -87 53 0 10 -10 35 -22 54 -12 19
-22 41 -22 48 0 14 -9 15 -30 3 -8 -6 -19 -7 -24 -3 -14 8 -97 2 -119 -10 -36
-19 -57 -18 -57 3 0 17 -3 18 -20 9 -20 -11 -23 -29 -5 -42 6 -5 5 -8 -2 -8
-8 0 -13 -13 -13 -31 0 -28 -3 -31 -25 -27 -13 3 -22 1 -19 -3 3 -5 -2 -9 -10
-9 -19 0 -46 38 -46 65 0 11 -5 37 -10 57 -10 34 -14 37 -41 34 -39 -5 -43
-10 -28 -38 7 -12 12 -35 10 -50 -1 -16 2 -28 8 -28 6 0 11 7 11 15 0 30 30
14 50 -26 l21 -41 -23 4 c-13 2 -22 9 -20 16 1 6 -5 12 -13 12 -8 0 -15 -4
-15 -9 0 -5 -9 -7 -20 -4 -11 3 -17 10 -13 17 3 6 4 9 0 6 -3 -3 -5 -8 -4 -11
1 -3 -6 -14 -16 -24 -13 -12 -21 -15 -29 -7 -12 12 -44 1 -91 -31 -31 -21 -91
-20 -197 5 -12 2 -14 -6 -12 -39 3 -46 -10 -56 -28 -23 -6 11 -17 20 -25 20
-17 0 -93 -38 -101 -51 -7 -12 -44 -11 -44 1 0 6 -13 10 -30 10 -22 0 -37 10
-61 40 -31 39 -67 55 -56 26 3 -8 2 -29 -3 -46 -7 -25 -4 -37 17 -70 15 -22
29 -40 33 -40 16 0 1 -55 -20 -72 -21 -17 -24 -17 -40 -3 -25 22 -66 10 -110
-33 -19 -19 -41 -40 -49 -47 -20 -19 -91 1 -118 34 -13 14 -23 30 -23 34 0 5
-12 24 -26 43 -26 34 -51 43 -69 25 -6 -6 -27 -12 -47 -14 -20 -2 -43 -8 -50
-14 -14 -11 -54 -22 -105 -29 -28 -3 -33 -1 -33 16 0 11 6 20 14 20 8 0 19 14
25 30 9 28 8 32 -15 40 -14 6 -30 10 -35 10 -6 0 -8 4 -4 9 3 6 -7 6 -27 0
-36 -10 -59 8 -34 26 8 6 15 19 17 30 4 17 13 20 66 21 l62 1 54 59 c29 33 71
79 92 103 l39 43 66 -5 c36 -3 59 -3 52 0 -19 7 25 53 51 53 11 0 17 3 14 7
-4 3 -2 12 4 20 9 9 8 13 0 13 -6 0 -11 5 -11 10 0 15 36 12 50 -5 20 -24 120
-15 120 11 0 13 18 19 50 15 71 -7 254 -7 290 1 50 11 89 15 204 22 44 3 84
10 90 16 5 5 20 10 32 10 12 0 27 7 34 15 14 17 60 21 60 5 0 -15 36 -12 50 5
13 16 80 21 80 6z m770 -90 c0 -5 -7 -12 -16 -15 -14 -5 -15 -4 -4 9 14 17 20
19 20 6z m-621 -153 c6 -13 9 -15 7 -6 -3 10 -1 20 4 23 9 5 5 -54 -4 -63 -3
-3 -12 1 -20 7 -8 7 -20 10 -25 6 -7 -3 -8 0 -5 9 3 8 12 12 21 9 13 -5 13 -3
4 15 -7 12 -8 22 -3 22 5 0 14 -10 21 -22z m-59 -23 c-7 -9 -15 -13 -19 -10
-3 3 1 10 9 15 21 14 24 12 10 -5z m1170 4 c0 -6 -7 -9 -15 -5 -9 3 -15 0 -15
-9 0 -8 -5 -15 -10 -15 -7 0 -7 6 0 20 11 21 40 28 40 9z m-980 -74 c7 -8 16
-13 20 -10 8 5 70 -53 70 -66 0 -4 17 -13 38 -19 26 -6 43 -18 50 -35 15 -34
15 -55 0 -56 -7 -1 -22 -2 -33 -3 -13 0 -21 -9 -23 -23 -2 -13 -8 -23 -13 -23
-14 0 -69 62 -63 71 3 5 -6 9 -19 9 -15 0 -28 9 -37 25 -7 14 -18 25 -23 25
-5 0 -18 12 -30 26 -19 24 -22 25 -33 10 -8 -11 -14 -13 -19 -7 -3 6 -2 11 4
11 6 0 8 7 5 15 -4 8 -13 15 -20 15 -12 0 -12 3 -2 14 9 10 14 11 17 3 9 -26
26 -24 39 4 16 32 51 39 72 14z m-395 -85 c3 -5 -3 -10 -14 -10 -12 0 -21 5
-21 10 0 6 6 10 14 10 8 0 18 -4 21 -10z m200 -32 c8 -34 4 -41 -18 -32 -20 7
-29 31 -22 55 9 26 33 13 40 -23z m-1781 -80 c-10 -15 -32 4 -27 23 5 18 6 18
18 2 7 -10 11 -21 9 -25z m166 9 c11 -5 9 -6 -4 -4 -11 1 -21 9 -23 17 -3 10
-2 11 4 4 4 -6 15 -14 23 -17z m-10 -75 c0 -24 -40 -34 -64 -17 -20 15 -11 72
13 77 19 4 51 -33 51 -60z m2847 8 c1 -11 0 -20 -2 -20 -2 0 -9 9 -15 20 -8
15 -8 20 3 20 7 0 13 -9 14 -20z m151 -22 c-2 -18 -11 -24 -35 -26 -36 -4 -42
8 -17 32 24 25 56 21 52 -6z m-3018 -28 c0 -5 -10 -10 -22 -9 -22 0 -22 1 -3
9 11 5 21 9 23 9 1 1 2 -3 2 -9z m-20 -30 c0 -5 -5 -10 -11 -10 -5 0 -7 5 -4
10 3 6 8 10 11 10 2 0 4 -4 4 -10z m415 -158 c6 -4 11 -19 12 -34 1 -22 -4
-28 -29 -34 -21 -4 -27 -9 -18 -14 7 -4 10 -15 7 -24 -6 -15 -9 -15 -36 -1
-20 10 -28 20 -25 30 4 8 1 15 -5 15 -19 0 -12 18 16 45 27 25 58 32 78 17z
m-685 -32 c0 -5 7 -10 15 -10 16 0 19 -9 7 -27 -9 -14 -44 -12 -54 2 -15 20
-8 45 12 45 11 0 20 -4 20 -10z m950 -100 c0 -5 -4 -10 -9 -10 -6 0 -13 5 -16
10 -3 6 1 10 9 10 9 0 16 -4 16 -10z m-323 -28 c14 -9 -3 -35 -29 -45 -10 -3
-18 -13 -18 -22 0 -8 -2 -15 -4 -15 -2 0 -11 -3 -19 -6 -11 -4 -13 1 -10 20 3
14 9 26 14 26 5 0 8 3 8 8 -4 22 3 31 18 25 11 -4 14 -3 9 5 -8 13 12 16 31 4z
m-437 -189 c11 -10 16 -21 11 -27 -10 -13 -52 -126 -54 -143 0 -6 -7 -9 -15
-6 -7 3 -10 9 -5 12 18 13 11 37 -14 48 -31 15 -31 15 -39 -26 -6 -28 -4 -33
15 -38 16 -4 21 -11 18 -24 -6 -22 11 -26 19 -4 6 15 8 14 65 -37 25 -22 30
-33 27 -65 -3 -33 -6 -38 -28 -38 -19 0 -27 7 -36 33 -19 60 -30 61 -77 4 -18
-22 -27 -45 -27 -68 0 -38 -18 -45 -44 -18 -24 23 -19 49 13 77 l30 24 -25 12
c-13 6 -31 26 -40 44 -16 34 -16 35 20 88 75 111 105 152 115 158 20 13 52 10
71 -6z m-460 -488 c7 -8 22 -15 34 -15 31 0 43 -11 50 -46 6 -26 1 -37 -32
-73 -36 -40 -40 -41 -55 -26 -10 9 -17 21 -17 26 0 5 -9 18 -21 30 -19 19 -20
24 -8 70 13 50 27 60 49 34z m583 -10 c3 -16 -3 -35 -15 -50 -12 -16 -17 -32
-13 -45 4 -13 2 -20 -7 -20 -8 0 -13 12 -12 32 1 20 6 32 14 30 6 -1 8 2 5 8
-6 9 12 70 20 70 1 0 5 -11 8 -25z m-1595 -843 c6 -9 12 -27 12 -40 0 -20 -4
-22 -22 -16 -30 9 -28 6 -35 48 -5 33 -4 36 13 30 11 -4 25 -14 32 -22z m-1
-78 c-3 -3 -12 -4 -19 -1 -8 3 -5 6 6 6 11 1 17 -2 13 -5z m-334 -58 c-6 -24
-11 -25 -27 -7 -19 21 -19 21 5 18 13 -2 23 -7 22 -11z m-262 -318 c16 -18 29
-38 29 -45 0 -6 16 -24 35 -39 27 -20 33 -30 24 -40 -8 -10 -5 -15 15 -20 39
-9 19 -26 -25 -21 -46 5 -77 26 -106 72 -40 63 -45 78 -34 101 14 32 26 30 62
-8z m-123 -58 c6 0 12 -12 12 -27 0 -22 -2 -25 -10 -13 -8 11 -12 12 -18 3 -6
-9 -14 -3 -26 19 l-19 31 24 -6 c13 -4 30 -7 37 -7z m-213 -130 c2 -46 9 -79
20 -96 9 -14 14 -29 10 -32 -3 -4 -10 0 -15 8 -13 21 -22 6 -14 -24 8 -35 33
-33 47 4 6 17 15 30 20 30 5 0 6 -7 3 -15 -3 -9 1 -18 8 -21 8 -3 17 -12 20
-21 4 -10 2 -13 -8 -10 -10 4 -13 1 -10 -8 3 -7 -3 -18 -13 -23 -10 -6 -25
-26 -32 -45 -13 -33 -14 -34 -42 -20 -18 9 -30 25 -35 46 -10 42 -11 287 -1
280 4 -2 7 8 7 24 0 25 1 26 16 11 12 -12 18 -38 19 -88z m225 30 c0 -42 -12
-50 -42 -26 -16 11 -16 15 -3 32 13 16 16 17 25 4 8 -12 10 -11 10 8 0 12 2
22 5 22 3 0 5 -18 5 -40z m203 -196 c-4 -12 -8 -13 -14 -3 -9 15 -2 32 11 24
5 -3 6 -13 3 -21z m-63 -13 c0 -56 -39 -106 -82 -106 -35 -1 -43 20 -15 40 12
8 16 15 9 15 -22 0 -12 18 16 28 21 8 23 11 7 11 -17 1 -17 3 -5 11 8 5 11 10
7 10 -5 0 -5 5 -2 10 3 6 19 10 36 10 25 0 29 -4 29 -29z m480 -81 c0 -5 -2
-10 -4 -10 -3 0 -8 5 -11 10 -3 6 -1 10 4 10 6 0 11 -4 11 -10z m-770 -30 c0
-5 -2 -10 -4 -10 -3 0 -8 5 -11 10 -3 6 -1 10 4 10 6 0 11 -4 11 -10z m899
-34 c11 -23 11 -30 0 -37 -7 -4 -17 -5 -21 -3 -4 3 -8 -1 -8 -8 0 -7 -12 -1
-26 14 -19 19 -24 31 -19 47 10 32 56 23 74 -13z m-1115 -90 c3 -11 6 -36 6
-53 0 -27 -4 -33 -20 -33 -22 0 -27 9 -32 50 -2 14 -7 31 -12 38 -4 7 -5 19
-2 27 8 21 52 -1 60 -29z m1256 28 c0 -14 -3 -14 -15 -4 -8 7 -15 14 -15 16 0
2 7 4 15 4 8 0 15 -7 15 -16z m-1346 -126 c11 -78 86 -168 142 -168 28 0 31
-3 32 -35 1 -19 -3 -35 -8 -35 -6 0 -10 -7 -10 -15 0 -8 -4 -15 -10 -15 -5 0
-10 4 -10 10 0 5 -18 13 -40 16 -49 8 -100 60 -100 103 0 16 -6 31 -14 34 -7
3 -16 21 -20 39 -3 19 -17 49 -31 68 -13 18 -22 37 -19 41 3 5 22 9 43 9 l38
0 7 -52z m256 -48 c0 -5 -2 -10 -4 -10 -3 0 -8 5 -11 10 -3 6 -1 10 4 10 6 0
11 -4 11 -10z m50 -6 c0 -3 -6 -12 -14 -19 -12 -12 -15 -11 -19 5 -4 15 0 20
14 20 10 0 19 -3 19 -6z"/>
<path d="M4566 8419 c-8 -12 -19 -18 -24 -15 -5 3 -15 -1 -22 -9 -7 -8 -21
-15 -31 -15 -27 0 -23 -17 8 -37 37 -25 137 -28 175 -5 34 20 37 53 6 82 -30
28 -92 27 -112 -1z"/>
<path d="M5453 8393 c0 -10 13 -29 29 -42 27 -22 31 -23 46 -8 15 16 14 18 -5
36 -31 30 -68 37 -70 14z"/>
<path d="M4475 8259 c-4 -6 -5 -12 -2 -15 2 -3 7 2 10 11 7 17 1 20 -8 4z"/>
<path d="M5835 8260 c-3 -5 -1 -10 4 -10 6 0 11 5 11 10 0 6 -2 10 -4 10 -3 0
-8 -4 -11 -10z"/>
<path d="M3875 8166 c-24 -17 -11 -36 26 -36 33 0 37 10 11 33 -16 14 -21 15
-37 3z"/>
<path d="M3470 8149 c0 -5 5 -7 10 -4 6 3 10 8 10 11 0 2 -4 4 -10 4 -5 0 -10
-5 -10 -11z"/>
<path d="M3736 8136 c3 -9 11 -16 16 -16 13 0 5 23 -10 28 -7 2 -10 -2 -6 -12z"/>
<path d="M3605 8050 c-3 -5 -1 -10 4 -10 6 0 11 5 11 10 0 6 -2 10 -4 10 -3 0
-8 -4 -11 -10z"/>
<path d="M3205 7190 c-3 -5 -1 -10 4 -10 6 0 11 5 11 10 0 6 -2 10 -4 10 -3 0
-8 -4 -11 -10z"/>
<path d="M5680 7600 c0 -5 5 -10 11 -10 5 0 7 5 4 10 -3 6 -8 10 -11 10 -2 0
-4 -4 -4 -10z"/>
<path d="M9050 7210 c13 -9 13 -11 0 -20 -8 -5 -31 -10 -50 -11 -19 0 -57 -9
-85 -19 l-50 -18 53 -1 c30 -1 59 4 66 12 7 7 39 12 78 12 64 0 65 0 42 16
-15 10 -20 19 -14 25 6 6 -2 11 -23 12 -24 2 -28 0 -17 -8z"/>
<path d="M9124 7185 c22 -17 42 -19 50 -6 7 11 -17 21 -47 21 -22 -1 -22 -1
-3 -15z"/>
<path d="M8633 7168 c4 -11 -1 -19 -14 -23 -11 -4 -19 -9 -16 -11 9 -9 67 -22
62 -14 -5 9 31 21 39 12 3 -3 -2 -11 -12 -19 -15 -13 -11 -14 37 -9 30 3 59
10 65 16 5 5 21 10 34 10 13 0 20 4 17 10 -3 6 -35 10 -69 10 -44 0 -67 5 -76
15 -7 8 -18 15 -24 15 -6 0 -4 -5 4 -10 12 -8 11 -10 -5 -10 -12 0 -27 6 -34
13 -11 10 -13 9 -8 -5z m120 -45 c-7 -2 -19 -2 -25 0 -7 3 -2 5 12 5 14 0 19
-2 13 -5z"/>
<path d="M8530 7135 c0 -13 56 -35 90 -35 13 0 13 1 0 10 -8 5 -27 10 -42 10
-18 0 -28 5 -28 15 0 8 -4 15 -10 15 -5 0 -10 -7 -10 -15z"/>
<path d="M8560 7090 l-25 -8 28 -1 c15 -1 27 4 27 9 0 6 -1 10 -2 9 -2 -1 -14
-5 -28 -9z"/>
<path d="M411 6853 c-41 -88 -136 -340 -181 -478 -95 -294 -165 -620 -207
-965 -26 -209 -26 -861 0 -1070 39 -317 110 -670 135 -670 8 0 12 6 8 15 -3 8
-1 15 4 15 5 0 7 7 4 15 -4 10 0 15 11 15 11 0 15 -5 12 -14 -3 -8 3 -22 13
-31 17 -15 19 -30 15 -152 -3 -127 -1 -140 25 -217 l28 -81 3 130 c3 198 17
646 22 715 1 19 -2 43 -8 52 -6 11 -5 35 2 69 5 29 9 104 7 168 -1 63 2 123 7
133 6 10 6 24 2 31 -10 16 -10 87 0 87 4 0 7 5 7 10 0 6 -5 9 -12 8 -18 -4
-18 44 -1 64 9 10 13 24 10 32 -4 9 -2 18 3 21 6 4 10 15 10 25 0 10 5 22 12
26 8 5 9 2 5 -10 -9 -24 -19 -75 -11 -58 3 6 10 12 15 12 16 0 9 -21 -13 -41
-13 -10 -18 -18 -12 -19 6 0 9 -12 6 -29 -3 -22 1 -29 18 -34 17 -4 21 -12 18
-39 -2 -20 -8 -33 -17 -33 -8 0 -16 -6 -19 -14 -3 -8 1 -12 9 -9 31 10 54 -47
24 -58 -11 -4 -12 -11 -5 -24 5 -10 10 -105 10 -212 1 -106 3 -435 5 -730 l4
-538 36 -82 c20 -46 39 -85 42 -88 3 -3 2 121 -2 275 -8 339 -8 358 -6 465 1
47 -1 95 -3 106 -2 12 -6 127 -8 257 -2 129 -6 230 -10 224 -3 -5 -6 1 -5 14
1 59 -16 655 -20 661 -2 4 1 103 6 220 16 336 33 1829 20 1849 -3 5 -11 -3
-18 -18z m-207 -1698 c3 -9 0 -15 -9 -15 -8 0 -15 7 -15 15 0 8 4 15 9 15 5 0
11 -7 15 -15z m156 -119 c0 -7 -6 -26 -14 -41 -13 -26 -14 -26 -21 -6 -3 12
-3 30 0 41 7 23 35 27 35 6z m-18 -190 c5 -7 8 -6 8 3 0 18 13 6 16 -15 2 -11
-3 -14 -16 -11 -14 4 -22 -3 -29 -22 -9 -24 -9 -24 -10 -4 -1 12 -7 26 -13 30
-7 4 -14 16 -14 25 -1 14 4 17 25 11 14 -3 29 -11 33 -17z m-127 -820 c3 -11
6 -79 7 -151 l3 -130 -35 -3 c-56 -4 -59 2 -48 103 6 50 16 108 24 130 8 23
14 51 14 63 0 28 28 19 35 -12z"/>
<path d="M3100 6820 c0 -5 5 -10 10 -10 6 0 10 5 10 10 0 6 -4 10 -10 10 -5 0
-10 -4 -10 -10z"/>
<path d="M5070 6628 c-36 -5 -69 -13 -74 -19 -6 -5 -17 -9 -25 -9 -9 0 -31
-14 -50 -30 -18 -17 -37 -30 -41 -30 -7 0 -19 -26 -34 -72 -3 -11 -1 -15 8
-12 8 3 17 1 20 -5 14 -22 228 8 288 40 10 5 33 9 52 9 19 0 37 4 40 9 3 4 18
7 33 5 16 -2 20 -1 10 2 -15 5 -17 13 -12 48 6 40 -3 62 -27 65 -5 1 -9 1 -10
1 -41 6 -128 5 -178 -2z"/>
<path d="M3275 6590 c3 -5 8 -10 11 -10 2 0 4 5 4 10 0 6 -5 10 -11 10 -5 0
-7 -4 -4 -10z"/>
<path d="M5369 6564 c-6 -8 -17 -14 -24 -14 -7 0 -15 -7 -19 -15 -7 -18 -2
-18 66 -4 67 14 95 28 78 39 -21 13 -88 10 -101 -6z"/>
<path d="M5665 6560 c-3 -5 6 -12 20 -16 13 -3 23 -10 20 -14 -3 -4 4 -10 15
-13 13 -3 20 0 20 9 0 8 -5 14 -11 14 -5 0 -7 5 -3 12 4 6 3 8 -4 4 -6 -3 -13
-2 -17 4 -8 13 -32 13 -40 0z"/>
<path d="M3840 6394 c-19 -3 -57 -16 -85 -29 -30 -15 -71 -25 -103 -26 -29 -2
-57 -8 -62 -14 -6 -7 -28 -20 -50 -30 -47 -21 -49 -27 -16 -45 16 -8 22 -18
18 -29 -11 -30 -42 -42 -42 -16 0 8 -6 15 -14 15 -8 0 -21 -7 -30 -15 -8 -8
-19 -15 -24 -15 -5 0 -30 -23 -56 -51 -48 -52 -58 -88 -36 -130 11 -19 11 -19
32 1 12 11 27 20 34 20 7 0 15 13 19 29 5 26 20 37 108 80 99 49 108 51 282
75 99 14 200 27 225 29 25 2 53 7 62 11 9 4 40 6 68 3 38 -4 53 -1 57 9 6 17
-84 104 -108 104 -9 0 -19 3 -22 6 -4 4 -33 8 -64 9 -32 1 -80 5 -108 7 -27 3
-66 4 -85 2z m-290 -214 c0 -5 -5 -10 -11 -10 -5 0 -7 5 -4 10 3 6 8 10 11 10
2 0 4 -4 4 -10z m-30 -20 c0 -5 -4 -10 -10 -10 -5 0 -10 5 -10 10 0 6 5 10 10
10 6 0 10 -4 10 -10z"/>
<path d="M3100 6344 c0 -8 5 -12 10 -9 6 4 8 11 5 16 -9 14 -15 11 -15 -7z"/>
<path d="M5003 6317 c9 -15 12 -29 7 -37 -5 -8 -6 -18 -3 -23 3 -6 -5 -18 -18
-28 -23 -18 -23 -19 -3 -19 11 0 33 14 49 30 41 43 65 40 65 -8 0 -21 9 -56
20 -77 l20 -40 62 4 c34 1 70 8 80 15 21 12 48 67 48 98 0 30 28 32 65 4 28
-21 35 -34 35 -60 0 -39 5 -42 83 -45 66 -2 92 11 77 39 -5 9 -6 21 -2 25 4 3
0 5 -8 3 -8 -1 -14 3 -12 10 1 6 -4 12 -11 12 -7 0 -17 8 -24 19 -6 10 -32 24
-58 30 -26 6 -59 19 -73 29 -37 24 -268 44 -299 25 -12 -7 -29 -13 -38 -13 -9
0 -13 -4 -10 -10 8 -13 -1 -13 -26 1 -19 10 -19 12 -4 23 14 10 13 12 -11 14
-25 2 -26 1 -11 -21z m230 -67 c3 -10 -1 -27 -8 -37 -13 -17 -15 -17 -30 -2
-14 13 -15 21 -6 38 15 26 37 27 44 1z"/>
<path d="M9390 6289 c-8 -5 -26 -9 -40 -10 -18 -1 -20 -3 -7 -6 12 -3 16 -10
13 -20 -5 -13 7 -14 96 -8 57 4 104 8 106 10 1 1 0 9 -4 18 -4 13 -20 16 -69
16 -35 -1 -68 2 -73 4 -4 3 -14 2 -22 -4z"/>
<path d="M5415 6120 c3 -5 8 -10 11 -10 2 0 4 5 4 10 0 6 -5 10 -11 10 -5 0
-7 -4 -4 -10z"/>
<path d="M3905 6045 c-16 -8 -38 -14 -48 -15 -18 0 -59 -25 -192 -118 l-70
-49 -11 -73 c-9 -60 -8 -75 4 -87 13 -12 17 -12 33 3 10 9 22 13 27 10 5 -3
25 0 45 6 26 8 34 15 27 23 -6 7 0 12 22 13 23 2 29 -1 25 -12 -9 -22 34 -29
49 -8 25 32 17 44 -28 41 -43 -3 -91 11 -102 29 -13 21 93 150 114 137 4 -2
10 -19 14 -36 3 -17 21 -44 40 -61 20 -17 32 -36 29 -44 -10 -28 28 -14 45 16
12 21 25 30 43 30 15 0 31 6 36 13 13 17 33 89 33 120 0 14 4 29 10 32 5 3 14
14 19 24 9 16 3 17 -62 18 -43 1 -84 -4 -102 -12z m41 -111 c-7 -19 -35 -18
-43 3 -4 10 2 23 18 36 l24 19 3 -22 c2 -12 1 -28 -2 -36z"/>
<path d="M4328 5893 c-9 -10 -18 -27 -20 -38 -2 -15 3 -20 21 -20 26 0 38 33
23 61 -7 13 -11 12 -24 -3z m12 -27 c0 -3 -4 -8 -10 -11 -5 -3 -10 -1 -10 4 0
6 5 11 10 11 6 0 10 -2 10 -4z"/>
<path d="M1720 5865 c-15 -18 -6 -45 15 -45 10 0 15 10 15 30 0 33 -11 38 -30
15z"/>
<path d="M9470 5845 c0 -8 14 -11 38 -10 55 3 58 4 42 15 -21 13 -80 9 -80 -5z"/>
<path d="M9300 5819 c0 -6 -7 -9 -15 -5 -10 4 -15 -1 -15 -15 0 -15 5 -19 16
-15 9 3 22 6 30 6 19 0 18 26 -1 34 -8 3 -15 1 -15 -5z"/>
<path d="M1565 5801 c-3 -5 -1 -12 5 -16 5 -3 10 1 10 9 0 18 -6 21 -15 7z"/>
<path d="M1557 5752 c4 -9 2 -13 -4 -9 -6 4 -10 -4 -10 -20 0 -15 -9 -34 -20
-42 -40 -33 -6 -111 47 -111 10 0 21 -6 23 -12 3 -7 6 -3 6 9 1 12 12 34 26
49 14 15 25 33 25 41 0 8 5 11 12 7 8 -5 9 -2 5 9 -4 11 -1 17 8 17 8 0 15 9
15 20 0 11 -4 20 -9 20 -5 0 -11 10 -15 23 -3 12 -9 18 -13 12 -10 -12 -53
-19 -53 -8 0 4 -11 9 -24 9 -18 1 -23 -2 -19 -14z m101 -14 c-2 -5 -8 -9 -13
-9 -5 0 -11 4 -13 9 -1 5 4 9 13 9 9 0 14 -4 13 -9z"/>
<path d="M9588 5735 c-10 -13 -18 -29 -18 -34 0 -6 -11 -11 -25 -11 -14 0 -25
-4 -25 -10 0 -5 7 -10 15 -10 25 0 35 -46 36 -149 0 -53 4 -139 9 -191 4 -57
4 -100 -2 -107 -5 -7 -5 -13 0 -17 5 -3 7 -18 4 -33 -5 -26 -4 -27 12 -10 14
13 16 26 12 52 -4 19 -2 44 4 55 11 21 21 174 20 302 -1 42 4 95 10 118 17 65
-17 94 -52 45z"/>
<path d="M8349 5610 c-9 -5 -61 -14 -115 -19 -54 -6 -126 -15 -159 -20 -50 -9
-233 -35 -493 -70 -29 -4 -62 -7 -73 -6 -14 1 -20 -7 -25 -32 -5 -28 -1 -42
26 -79 28 -39 31 -51 26 -87 -3 -23 -6 -98 -8 -166 -2 -120 -1 -125 20 -134
44 -20 42 -107 -3 -107 -24 0 -24 0 -27 -117 -2 -78 1 -132 10 -158 10 -29 12
-71 7 -156 -5 -86 -4 -123 6 -140 7 -13 13 -42 13 -64 l1 -40 80 -13 c44 -6
108 -17 142 -23 35 -6 70 -9 78 -5 13 4 15 34 15 185 l0 181 25 16 c18 11 35
14 65 9 66 -11 69 -22 63 -224 -7 -202 -9 -195 77 -204 187 -20 200 -28 200
-124 0 -102 0 -102 -295 -118 -38 -3 -83 -6 -100 -9 -16 -3 -93 -10 -170 -16
-77 -6 -159 -16 -182 -22 -29 -7 -51 -7 -72 0 -27 9 -30 8 -33 -11 -5 -36 -34
-32 -62 10 -25 36 -26 43 -26 184 0 99 5 161 15 194 9 31 11 54 5 65 -11 21
-14 361 -4 493 l7 97 -24 1 c-13 1 -31 2 -39 3 -8 0 -17 12 -19 26 -1 14 -8
28 -15 32 -6 5 -2 8 12 8 12 0 22 5 22 10 0 6 8 5 20 -2 38 -24 43 -1 45 209
2 109 1 223 -2 253 l-5 56 -222 -28 c-294 -37 -364 -46 -406 -52 -68 -10 -175
-20 -206 -21 -22 0 -46 -14 -90 -54 -80 -72 -132 -94 -210 -89 l-62 4 -7 -86
c-3 -47 -10 -110 -15 -140 -5 -30 -14 -89 -21 -130 -12 -78 -51 -208 -74 -244
-13 -21 -29 -75 -27 -88 2 -11 -38 -97 -49 -104 -6 -3 -14 -17 -20 -30 -7 -20
-5 -30 11 -46 27 -29 25 -34 -11 -47 -24 -8 -30 -15 -24 -28 4 -10 9 -45 11
-78 10 -165 9 -164 73 -221 66 -60 134 -182 152 -274 7 -33 12 -200 13 -420
l2 -365 31 -66 c35 -73 53 -131 53 -170 0 -23 118 -266 222 -459 20 -36 65
-121 100 -190 36 -69 100 -190 143 -270 152 -285 178 -336 225 -446 26 -60 59
-135 73 -165 30 -64 117 -285 117 -296 0 -4 13 -39 30 -78 16 -38 37 -96 46
-128 l16 -58 46 27 c295 171 633 416 837 608 65 60 68 65 43 66 -28 0 -51 20
-24 20 12 0 14 5 6 25 -8 20 -7 23 7 18 13 -5 15 -2 10 11 -4 10 -7 22 -7 27
0 5 -13 9 -29 9 -16 0 -31 5 -33 12 -3 7 -7 6 -11 -5 -4 -11 -1 -17 7 -17 22
0 7 -78 -21 -108 -18 -19 -20 -27 -11 -34 8 -5 9 -8 2 -8 -6 0 -17 7 -24 15
-16 19 -34 19 -26 0 3 -8 1 -15 -4 -15 -6 0 -10 5 -10 10 0 6 -9 10 -20 10
-11 0 -20 5 -20 11 0 7 -8 18 -17 25 -16 12 -16 15 -3 24 10 6 11 10 3 10 -7
0 -13 5 -13 11 0 5 4 8 9 4 6 -3 16 2 23 10 7 9 21 24 31 33 27 26 21 42 -16
40 -29 -1 -33 -4 -29 -23 3 -19 0 -22 -20 -18 -21 4 -24 10 -22 43 1 21 5 43
9 49 3 7 -2 11 -14 11 -19 0 -26 10 -22 32 0 5 -4 8 -9 8 -5 0 -9 6 -7 12 1 8
-8 12 -23 11 -14 -1 -18 0 -7 3 13 4 15 12 11 32 -4 15 -11 33 -17 40 -5 6 -5
12 0 12 5 0 9 9 9 20 0 21 -11 27 -20 11 -12 -19 -43 0 -43 27 0 15 -10 48
-21 74 -12 26 -20 53 -17 60 3 7 -13 26 -35 42 -21 16 -37 33 -34 38 3 4 -2 8
-10 8 -10 0 -13 6 -10 15 4 9 0 15 -10 15 -9 0 -16 4 -16 10 0 16 -52 58 -66
53 -17 -6 -29 21 -19 45 12 30 13 105 2 124 -7 11 -24 18 -40 18 -24 0 -28 3
-22 18 12 31 11 72 -2 84 -7 6 -13 17 -13 24 0 8 -10 14 -22 14 -22 1 -22 1
-5 14 12 9 14 16 8 21 -6 3 -11 1 -11 -4 0 -6 -9 -3 -20 6 -11 10 -20 23 -20
29 0 6 -6 17 -14 23 -18 15 -18 61 1 61 17 0 46 27 62 57 13 25 15 83 3 83 -4
0 -15 13 -25 29 -14 24 -22 28 -41 23 -14 -4 -35 -16 -49 -28 -33 -29 -75 -41
-129 -36 -37 3 -47 8 -52 25 -3 12 -20 45 -37 72 -18 28 -34 56 -35 63 -3 14
-164 177 -164 165 0 -4 -7 2 -15 13 -8 10 -15 16 -15 12 0 -4 -15 8 -32 25
-18 18 -50 45 -71 60 -47 35 -137 125 -137 137 0 10 -6 17 -112 132 -90 98
-146 171 -154 202 -5 22 -3 26 15 26 33 0 183 -64 243 -103 69 -46 89 -53 189
-67 46 -6 98 -18 114 -25 53 -23 123 -44 177 -54 69 -11 148 -31 170 -42 10
-5 36 -9 57 -9 22 0 42 -4 45 -8 8 -14 179 -22 248 -11 35 5 92 12 128 15 84
8 121 21 62 22 -23 0 -51 4 -63 7 -11 4 -26 1 -34 -5 -9 -7 -15 -8 -15 -2 0
16 29 35 46 28 8 -3 24 -2 33 4 11 6 31 6 49 1 25 -8 30 -6 25 5 -3 9 2 14 13
15 11 1 36 2 57 3 21 2 42 -3 48 -11 6 -7 19 -13 28 -13 12 0 13 -2 3 -9 -8
-4 -14 -12 -15 -17 -1 -4 -20 -7 -42 -7 l-40 2 40 -9 c22 -5 51 -7 65 -4 14 2
60 -2 103 -9 72 -12 77 -12 77 4 0 24 -27 31 -98 24 -38 -4 -62 -3 -67 4 -3 6
-2 11 4 11 6 0 8 7 5 15 -6 15 -3 16 46 19 14 1 31 5 38 9 7 5 68 9 137 10 95
2 127 -1 137 -12 11 -12 10 -13 -4 -8 -28 10 -21 -2 7 -13 14 -5 70 -10 123
-11 134 -1 131 -2 103 21 -15 13 -18 21 -10 22 8 0 19 2 24 3 6 2 39 3 74 4
56 1 62 3 51 16 -11 14 -10 14 14 5 33 -12 46 -13 28 -1 -9 5 4 13 40 24 64
20 232 22 251 3 17 -17 47 -27 47 -15 0 5 25 9 59 7 51 -2 57 -4 43 -15 -16
-12 -16 -13 0 -7 9 3 27 0 40 -6 20 -9 21 -9 7 2 -15 12 -15 15 0 28 22 21 72
21 96 2 19 -17 19 -17 2 11 -10 15 -13 27 -8 27 5 0 12 -4 15 -9 10 -15 48
-21 43 -6 -4 9 1 11 14 8 10 -3 19 0 19 6 0 5 6 8 13 6 6 -3 22 3 34 13 17 13
32 58 68 202 25 102 54 228 63 281 l18 96 -67 -2 c-60 -3 -71 0 -94 21 -25 23
-26 28 -23 120 3 92 2 95 -20 101 -13 3 -42 2 -65 -3 l-42 -9 -6 -125 c-7
-137 -6 -131 -16 -128 -5 0 -16 -2 -26 -7 -23 -10 -65 18 -78 53 -7 17 -8 70
-4 145 6 111 6 117 -12 111 -10 -4 -30 -20 -44 -37 -14 -17 -37 -31 -50 -32
-23 -2 -24 -4 -25 -98 -1 -91 -16 -157 -35 -157 -5 0 -9 4 -9 10 0 5 -6 7 -14
4 -9 -3 -19 4 -26 17 -12 22 -10 94 7 298 l5 64 -79 -6 c-43 -4 -114 -11 -158
-17 -44 -6 -115 -13 -157 -16 -43 -4 -75 -11 -72 -15 3 -5 -37 -9 -88 -9 -148
1 -158 17 -147 234 4 67 10 209 13 316 3 107 8 247 11 310 18 415 17 438 -16
420z m-1639 -875 c19 -3 46 -8 60 -11 14 -3 64 -7 112 -9 59 -2 92 -8 102 -17
23 -23 55 -93 62 -135 8 -54 -12 -69 -106 -76 -42 -4 -95 -13 -119 -22 -53
-18 -115 -20 -129 -2 -23 27 -105 274 -96 288 2 4 21 3 41 -2 21 -5 54 -11 73
-14z m443 -67 c12 -6 62 -12 112 -14 98 -3 94 0 87 -67 -1 -8 -31 -18 -79 -25
-43 -7 -92 -15 -108 -18 -25 -5 -34 -1 -54 26 -13 18 -26 50 -28 71 -5 37 -4
39 21 39 15 0 37 -5 49 -12z m-928 -374 c14 -9 25 -23 25 -30 0 -8 5 -14 10
-14 6 0 10 -7 10 -15 0 -8 7 -15 15 -15 9 0 15 9 15 24 0 51 35 38 61 -23 7
-18 6 -28 -6 -41 -8 -9 -15 -22 -15 -28 0 -7 -4 -12 -10 -12 -17 0 -11 -33 15
-79 28 -49 33 -101 10 -101 -8 0 -15 -6 -15 -13 0 -7 -8 -20 -17 -28 -10 -9
-22 -24 -28 -33 -14 -24 -45 -10 -45 19 0 13 -7 31 -16 39 -14 15 -11 20 9 17
5 -1 7 2 4 6 -9 18 -20 49 -23 68 -4 18 -2 18 15 -4 15 -19 21 -22 37 -13 16
10 17 11 2 12 -9 0 -19 9 -23 19 -4 14 -14 19 -30 18 -13 -1 -23 3 -22 8 1 6
17 10 35 10 17 0 32 4 32 8 0 17 -24 53 -55 82 -35 33 -53 98 -33 122 13 16
14 16 43 -3z m-138 -19 c7 -15 7 -25 1 -25 -16 0 -40 29 -33 40 10 16 19 12
32 -15z m1232 -26 c-23 -20 -41 -17 -33 5 3 7 16 14 30 14 l24 0 -21 -19z m25
-14 c-4 -8 -13 -15 -20 -15 -12 0 -12 3 -2 15 17 19 29 19 22 0z m-49 -25 c3
-5 1 -10 -4 -10 -6 0 -11 5 -11 10 0 6 2 10 4 10 3 0 8 -4 11 -10z m-618 -260
c-1 -93 -4 -170 -8 -170 -3 0 -9 3 -13 7 -3 4 -16 8 -27 10 -12 2 -34 12 -49
23 -16 11 -33 20 -38 20 -12 0 -22 24 -22 56 0 27 30 33 49 10 15 -18 51 -27
51 -14 0 6 6 5 15 -2 12 -10 15 -9 15 8 0 11 -6 22 -13 25 -16 6 -16 112 0
142 6 11 8 25 6 32 -2 6 1 14 6 18 6 3 11 16 12 28 l0 22 9 -22 c5 -13 8 -99
7 -193z m2508 131 c-17 -17 -45 -8 -45 15 0 10 8 25 18 34 16 17 18 16 29 -9
9 -21 9 -29 -2 -40z m-3030 9 c3 -5 2 -10 -4 -10 -5 0 -13 5 -16 10 -3 6 -2
10 4 10 5 0 13 -4 16 -10z m10 -40 c3 -5 -1 -10 -9 -10 -9 0 -16 5 -16 10 0 6
4 10 9 10 6 0 13 -4 16 -10z m27 -45 c6 -14 9 -28 5 -31 -7 -7 -47 32 -47 46
0 20 31 9 42 -15z m1118 -132 c0 -6 -5 -15 -12 -19 -14 -9 -38 23 -32 42 15
49 16 50 30 19 7 -16 13 -35 14 -42z m690 -2631 c0 -8 -1 -13 -3 -11 -1 2 -9
12 -16 22 -12 15 -12 17 3 11 9 -3 16 -13 16 -22z m-20 -22 c0 -5 -5 -10 -11
-10 -5 0 -7 5 -4 10 3 6 8 10 11 10 2 0 4 -4 4 -10z"/>
<path d="M4321 5509 c-13 -11 -21 -25 -18 -33 4 -10 1 -13 -7 -10 -15 6 -33
-14 -34 -36 0 -8 -5 -33 -11 -55 -6 -22 -10 -53 -10 -70 1 -27 2 -25 13 13 6
24 14 40 19 36 4 -4 7 5 7 19 0 15 13 41 30 61 20 22 27 37 20 41 -8 5 -6 13
6 26 24 26 14 32 -15 8z m-21 -69 c0 -5 -4 -10 -10 -10 -5 0 -10 5 -10 10 0 6
5 10 10 10 6 0 10 -4 10 -10z"/>
<path d="M1823 5443 c-16 -6 -17 -33 -3 -33 11 0 26 28 19 34 -2 2 -10 1 -16
-1z"/>
<path d="M9282 5395 c0 -16 2 -22 5 -12 2 9 2 23 0 30 -3 6 -5 -1 -5 -18z"/>
<path d="M1801 5324 c0 -11 3 -14 6 -6 3 7 2 16 -1 19 -3 4 -6 -2 -5 -13z"/>
<path d="M4418 5198 c-3 -7 -6 -33 -7 -58 -2 -35 -10 -55 -39 -90 -21 -25 -46
-58 -56 -75 -11 -16 -33 -41 -50 -55 -53 -43 -176 -179 -185 -204 -2 -6 -7
-13 -11 -16 -11 -8 -19 -100 -8 -100 5 0 7 -13 3 -29 -3 -16 -2 -32 3 -35 12
-7 54 51 50 72 -1 9 1 17 6 17 4 0 14 12 22 28 8 15 19 27 25 27 6 0 37 26 69
58 32 31 72 69 90 84 43 37 147 88 179 88 14 0 35 7 45 15 11 8 29 13 40 9 12
-3 16 -2 10 3 -6 4 -10 20 -9 34 2 17 -4 34 -18 47 -59 54 -90 95 -106 139
-16 46 -44 68 -53 41z"/>
<path d="M9253 5191 c-28 -23 -29 -39 -5 -85 20 -41 32 -46 32 -13 0 13 9 32
20 42 24 22 25 38 4 59 -19 20 -24 20 -51 -3z"/>
<path d="M4743 5092 c-46 -50 -52 -62 -53 -99 0 -43 7 -47 45 -24 6 3 29 11
53 17 44 11 149 0 232 -25 19 -6 56 -11 82 -11 36 0 54 -6 77 -26 24 -20 40
-25 65 -22 25 3 32 0 29 -9 -6 -15 6 -17 27 -3 12 8 7 17 -30 49 -25 22 -49
40 -54 41 -4 0 -21 11 -38 25 -23 19 -41 25 -79 25 -27 0 -49 5 -49 10 0 6
-20 19 -44 30 -25 10 -58 32 -74 49 -26 27 -35 31 -83 30 -52 0 -55 -2 -106
-57z"/>
<path d="M3310 4967 c0 -30 6 -49 19 -61 23 -21 38 -78 46 -174 6 -68 5 -74
-17 -92 -16 -14 -39 -19 -76 -20 -47 0 -56 4 -86 34 -22 23 -33 45 -34 68 -1
18 -3 40 -5 50 -5 30 -49 107 -65 113 -8 3 -42 -1 -76 -9 -33 -8 -90 -17 -126
-21 -36 -3 -103 -13 -149 -21 -46 -8 -85 -14 -87 -14 -10 0 -2 -68 11 -90 11
-20 13 -56 8 -181 -6 -146 -5 -157 14 -175 34 -33 37 -55 9 -78 -25 -21 -26
-25 -32 -193 l-6 -172 32 -28 c25 -23 33 -40 43 -95 11 -67 12 -68 42 -68 17
0 36 5 42 11 13 13 20 -7 26 -76 2 -26 4 -17 5 25 2 59 0 67 -23 84 -14 10
-35 34 -46 53 -24 38 -17 55 23 58 22 2 23 5 24 96 1 118 8 138 44 146 48 9
59 30 62 118 2 58 7 79 16 77 6 -1 12 2 12 7 0 9 58 -1 78 -13 6 -4 9 -19 7
-34 -3 -15 -7 -61 -9 -102 -4 -70 -2 -76 24 -106 25 -29 27 -36 20 -80 -5 -27
-6 -70 -3 -95 5 -45 6 -45 45 -48 21 -1 50 -6 64 -11 14 -6 46 -10 72 -10 26
0 63 -4 82 -9 32 -9 119 -15 162 -12 28 2 46 60 53 171 3 58 8 119 10 135 1
17 4 39 4 50 2 25 28 61 38 51 4 -4 8 -31 9 -59 1 -29 7 -65 13 -81 7 -16 9
-42 6 -58 -4 -17 -2 -28 4 -28 6 0 11 -11 11 -24 0 -13 9 -35 20 -49 11 -14
20 -30 20 -35 0 -5 7 -12 15 -16 9 -3 19 -14 23 -24 10 -28 100 -102 148 -124
23 -10 47 -25 54 -33 7 -8 19 -15 27 -15 8 0 45 -15 82 -34 36 -19 86 -40 111
-46 25 -7 50 -16 55 -20 6 -5 29 -13 50 -19 22 -6 76 -21 120 -35 120 -36 219
-47 298 -31 21 4 57 9 80 10 195 13 359 65 592 189 66 36 206 157 360 311 44
44 91 89 106 100 14 11 26 24 26 28 0 4 8 32 19 62 21 62 12 107 -21 114 -11
2 -23 8 -27 14 -4 6 -10 9 -13 5 -4 -3 3 -16 14 -27 34 -34 28 -46 -27 -56
-17 -3 -34 -1 -37 5 -3 5 -14 10 -23 10 -15 0 -15 -2 -2 -11 11 -8 9 -9 -10
-3 -14 4 -33 7 -43 6 -15 -1 -16 2 -7 13 9 11 8 18 -7 32 -43 43 -50 45 -71
22 -11 -11 -18 -28 -15 -36 4 -10 -1 -13 -18 -10 -13 2 -18 2 -11 0 16 -6 -23
-50 -55 -63 -16 -7 -23 -18 -23 -35 0 -30 -16 -65 -30 -65 -6 0 -10 7 -10 15
0 8 -5 15 -10 15 -7 0 -7 -6 -2 -17 12 -24 4 -43 -17 -43 -12 0 -17 8 -16 27
0 14 -6 28 -12 30 -8 3 -13 -5 -13 -20 0 -13 -9 -32 -20 -42 -14 -12 -17 -22
-10 -30 16 -19 0 -25 -24 -9 -30 19 -34 12 -28 -41 5 -49 -8 -60 -30 -25 -15
23 -38 27 -38 5 0 -17 -5 -17 -35 -5 -29 11 -55 -16 -55 -58 0 -55 -27 -99
-75 -122 -24 -11 -49 -30 -57 -41 -10 -16 -26 -20 -78 -22 -36 -2 -75 -9 -88
-16 -12 -6 -26 -10 -31 -7 -4 3 -23 8 -41 11 -38 7 -57 27 -66 68 -9 38 -24
44 -24 9 0 -16 -7 -35 -15 -42 -12 -10 -16 -8 -25 15 -6 15 -19 29 -30 32 -11
3 -17 10 -14 15 3 5 3 20 0 32 -5 19 -15 25 -51 31 -35 5 -46 11 -44 23 3 32
-1 42 -16 42 -9 0 -12 6 -8 18 3 9 -6 2 -21 -17 -16 -22 -26 -48 -26 -68 0
-18 -4 -33 -10 -33 -9 0 -14 15 -11 34 1 4 -3 14 -9 20 -5 7 -7 16 -3 19 3 4
-5 7 -18 7 -19 0 -21 2 -9 10 12 8 11 10 -7 10 -12 0 -24 4 -28 10 -3 6 -15 6
-30 0 -17 -6 -27 -5 -35 5 -9 11 -17 12 -31 4 -13 -6 -19 -6 -19 1 0 5 -11 10
-25 10 -20 0 -25 5 -26 28 -4 90 -19 111 -53 76 -14 -13 -16 -14 -16 0 0 8 -5
18 -11 22 -8 4 -9 0 -4 -15 5 -17 3 -20 -11 -14 -11 4 -15 3 -11 -4 4 -7 -6
-17 -23 -25 -16 -7 -30 -17 -30 -21 0 -5 -5 -5 -10 -2 -6 4 -8 15 -5 25 6 20
-16 33 -40 24 -11 -5 -13 -2 -9 10 5 12 0 16 -18 16 -26 0 -41 22 -52 73 -4
15 -22 43 -40 63 -31 33 -34 34 -39 15 -3 -12 -1 -21 4 -21 5 0 9 -7 9 -16 0
-9 -5 -12 -12 -8 -8 5 -9 0 -5 -15 5 -19 2 -21 -16 -15 -29 9 -34 14 -21 22
17 12 2 58 -16 47 -5 -3 -12 -1 -15 5 -5 8 -11 7 -21 -1 -9 -7 -14 -8 -14 -1
0 6 -13 25 -29 42 -22 24 -34 30 -50 25 -11 -3 -20 -9 -18 -13 1 -4 -1 -8 -5
-9 -18 -6 -28 -2 -28 11 0 7 -7 27 -15 42 -8 16 -15 40 -15 52 0 13 -9 36 -20
52 -11 15 -17 30 -13 33 9 10 -30 108 -57 141 -8 11 -10 16 -4 13 13 -8 27 19
18 34 -3 5 -12 9 -20 9 -8 0 -14 5 -14 11 0 6 8 8 18 5 12 -4 21 2 30 21 16
36 15 50 -5 73 -31 33 -68 115 -64 140 2 8 -1 11 -5 7 -5 -4 -13 11 -19 34
-14 59 -35 63 -35 6z m270 -727 c0 -5 -5 -10 -11 -10 -5 0 -7 5 -4 10 3 6 8
10 11 10 2 0 4 -4 4 -10z m2050 -20 c0 -5 -7 -10 -15 -10 -8 0 -15 5 -15 10 0
6 7 10 15 10 8 0 15 -4 15 -10z m-1815 -60 c11 9 14 7 12 -9 0 -11 -5 -17 -10
-14 -5 3 -12 1 -16 -5 -4 -7 -12 -8 -21 -2 -10 7 -11 10 -2 10 6 0 12 8 13 18
0 11 2 12 6 4 4 -10 8 -10 18 -2z m-30 -90 c-3 -4 0 -11 5 -13 6 -3 5 -4 -2
-3 -7 1 -15 11 -16 21 -3 11 0 15 7 10 6 -3 9 -10 6 -15z m325 0 c0 -5 -5 -10
-11 -10 -5 0 -7 5 -4 10 3 6 8 10 11 10 2 0 4 -4 4 -10z m1235 -70 c3 -5 -1
-10 -9 -10 -9 0 -16 5 -16 10 0 6 4 10 9 10 6 0 13 -4 16 -10z m247 -20 c9
-23 8 -23 -12 -5 -22 20 -27 39 -8 33 6 -2 15 -15 20 -28z"/>
<path d="M1337 4957 c-3 -9 4 -19 19 -26 20 -9 26 -8 31 4 6 18 5 20 -23 29
-14 4 -24 2 -27 -7z"/>
<path d="M1401 4944 c0 -11 3 -14 6 -6 3 7 2 16 -1 19 -3 4 -6 -2 -5 -13z"/>
<path d="M7393 4931 c0 -11 5 -17 9 -15 11 7 10 34 -1 34 -6 0 -9 -9 -8 -19z"/>
<path d="M9253 4869 c-12 -15 -12 -284 0 -295 11 -11 18 83 15 195 -2 90 -6
111 -15 100z"/>
<path d="M5280 4853 c0 -6 -6 -18 -14 -26 -13 -12 -10 -16 20 -31 31 -14 35
-15 41 0 3 10 -4 26 -21 42 -14 15 -26 21 -26 15z"/>
<path d="M3250 4808 c1 -31 1 -32 15 -14 19 25 19 46 0 46 -10 0 -15 -10 -15
-32z"/>
<path d="M1376 4795 c-9 -13 -16 -28 -16 -33 0 -6 -10 -13 -22 -17 l-23 -7 25
-8 c42 -13 80 -11 86 5 9 24 -5 85 -20 85 -8 0 -21 -11 -30 -25z"/>
<path d="M1650 4782 c-16 -19 -23 -23 -32 -14 -16 16 -71 16 -65 0 5 -17 148
-13 158 4 10 16 4 24 -21 31 -14 3 -26 -3 -40 -21z"/>
<path d="M2435 4794 c-55 -7 -129 -16 -165 -20 -107 -11 -103 -4 -97 -162 4
-76 6 -138 7 -139 1 -9 63 -33 83 -33 32 0 71 -32 87 -70 17 -40 6 -51 -56
-53 -38 -1 -53 -7 -71 -27 -19 -22 -21 -33 -17 -90 9 -127 22 -222 32 -232 20
-20 225 -36 278 -22 16 4 19 11 16 35 -3 21 4 41 22 67 23 34 26 47 26 128 0
98 -9 126 -33 106 -21 -18 -62 3 -65 33 -2 29 14 43 58 47 l35 3 -2 160 c-2
198 -11 285 -26 284 -7 -1 -57 -7 -112 -15z"/>
<path d="M5046 4796 c3 -7 -2 -16 -11 -20 -9 -3 -14 -2 -11 2 8 13 -81 -3 -98
-17 -18 -15 -129 -31 -239 -35 -80 -2 -104 -13 -93 -41 6 -17 27 -16 126 3 57
12 80 21 80 34 0 6 6 5 15 -2 8 -7 26 -10 40 -8 13 3 26 1 28 -5 1 -5 25 0 52
12 28 11 69 25 93 30 39 8 44 7 58 -14 13 -21 18 -22 47 -11 40 14 67 41 67
66 0 18 -7 20 -80 20 -63 0 -78 -3 -74 -14z m-39 -32 c-3 -3 -12 -4 -19 -1 -8
3 -5 6 6 6 11 1 17 -2 13 -5z"/>
<path d="M9710 4795 c0 -8 4 -15 10 -15 5 0 7 7 4 15 -4 8 -8 15 -10 15 -2 0
-4 -7 -4 -15z"/>
<path d="M1924 4730 c-55 -9 -106 -20 -113 -25 -11 -6 -12 -38 -6 -159 3 -83
12 -160 18 -171 6 -11 12 -85 14 -165 5 -178 11 -206 43 -202 12 1 28 -2 35
-8 9 -8 13 25 17 146 4 102 10 159 17 163 6 4 9 15 6 24 -9 23 10 52 35 54 12
1 29 8 37 15 9 7 27 11 40 10 l23 -3 -2 168 -3 168 -30 0 c-16 0 -75 -7 -131
-15z"/>
<path d="M4451 4664 c-19 -8 -41 -12 -48 -10 -7 3 -15 1 -18 -4 -4 -6 -21 -10
-39 -10 -19 0 -45 -9 -60 -21 -15 -11 -32 -22 -39 -23 -73 -14 -79 -17 -64
-39 8 -12 28 -37 45 -55 25 -27 37 -32 67 -30 20 1 39 6 41 10 3 5 10 6 15 3
5 -4 9 -1 9 4 0 6 6 10 13 9 7 -2 13 10 15 30 2 17 7 32 13 32 5 0 9 6 9 14 0
8 18 23 40 33 25 11 43 28 49 46 12 32 3 34 -48 11z"/>
<path d="M1328 4623 c-6 -7 -7 -13 -2 -13 5 0 3 -4 -4 -9 -11 -6 -15 -53 -19
-187 -5 -150 -3 -185 11 -217 14 -35 14 -40 0 -63 -26 -38 -12 -71 32 -76 20
-2 37 0 39 6 2 6 6 56 9 111 9 141 12 157 29 167 13 7 16 28 16 116 0 59 -4
123 -9 143 -9 34 -12 36 -51 35 -22 -1 -45 -7 -51 -13z"/>
<path d="M995 4597 c-49 -4 -113 -14 -142 -22 -28 -8 -73 -15 -101 -15 -27 0
-83 -3 -125 -6 -66 -6 -76 -10 -81 -28 -3 -12 -6 -100 -7 -196 l-2 -175 44 -7
c24 -4 121 -14 214 -23 162 -16 202 -25 217 -48 4 -6 12 -4 23 6 9 10 24 17
34 17 22 0 41 19 41 40 0 21 31 50 54 50 9 0 20 -8 23 -17 13 -33 18 28 15
170 -2 85 -7 137 -13 137 -6 0 -26 -14 -44 -31 -27 -26 -34 -42 -40 -88 -4
-31 -11 -60 -15 -66 -7 -9 -13 -43 -24 -140 -2 -16 2 -33 8 -37 6 -4 -2 -8
-18 -8 l-28 0 7 185 c5 139 4 185 -5 185 -6 0 -8 -4 -5 -10 10 -15 -21 -12
-34 4 -7 8 -9 25 -5 40 4 19 1 33 -11 46 -17 19 -17 20 3 20 11 0 24 -4 27
-10 8 -12 55 -13 73 -1 8 5 12 15 10 22 -2 11 -20 13 -93 6z"/>
<path d="M1613 4568 c-8 -14 -10 -19 -12 -42 -1 -12 -8 -13 -33 -5 -18 5 -34
9 -35 9 -2 0 -3 -13 -3 -29 0 -23 5 -31 23 -34 21 -4 21 -4 1 -6 -30 -2 -33
-20 -41 -227 -6 -177 -6 -182 15 -193 32 -17 175 -30 185 -17 4 6 5 52 1 101
-4 50 -8 167 -8 260 -1 94 -5 176 -9 183 -5 6 -23 12 -42 12 -19 0 -37 -6 -42
-12z"/>
<path d="M9260 4481 c0 -5 -11 -12 -24 -15 -22 -5 -23 -8 -13 -36 6 -16 14
-30 17 -30 13 0 51 62 46 76 -6 15 -26 19 -26 5z"/>
<path d="M4881 4429 c-24 -11 -49 -18 -55 -16 -6 2 -28 -5 -49 -16 -30 -15
-50 -18 -90 -14 -29 3 -82 2 -119 -2 -42 -4 -72 -3 -78 3 -5 5 -13 6 -17 2 -9
-9 64 -76 84 -76 7 0 13 -4 13 -9 0 -12 75 -29 143 -32 53 -2 61 0 92 28 19
17 40 35 47 40 7 4 19 20 27 35 7 14 22 29 32 31 11 3 19 14 19 26 0 12 -1 21
-2 20 -2 0 -23 -9 -47 -20z"/>
<path d="M5830 4400 c0 -36 41 -80 75 -80 18 0 23 6 23 28 0 28 -26 61 -44 55
-6 -2 -17 3 -24 12 -19 23 -30 18 -30 -15z"/>
<path d="M9245 4350 c-3 -5 -1 -10 4 -10 6 0 11 5 11 10 0 6 -2 10 -4 10 -3 0
-8 -4 -11 -10z"/>
<path d="M2034 4306 c4 -17 7 -100 7 -183 l0 -153 24 0 c38 0 44 26 39 161 -8
196 -8 194 -50 202 -24 4 -26 3 -20 -27z"/>
<path d="M4120 4120 c0 -5 -7 -7 -15 -4 -8 4 -15 1 -15 -5 0 -6 9 -11 20 -11
11 0 20 7 20 15 0 8 -2 15 -5 15 -3 0 -5 -4 -5 -10z"/>
<path d="M540 4064 c0 -32 17 -64 46 -86 17 -14 24 -33 30 -86 9 -83 9 -83 1
-161 -4 -35 -11 -69 -16 -75 -22 -27 -33 -160 -25 -300 8 -150 7 -169 -7 -174
-5 -2 -9 -10 -9 -17 0 -7 -9 -15 -20 -18 -17 -4 -20 -14 -20 -59 -1 -29 -3
-85 -5 -125 -2 -40 0 -85 5 -102 5 -19 4 -33 -3 -41 -9 -10 -9 -11 2 -5 11 7
13 2 8 -24 -7 -34 10 -51 35 -34 17 10 158 11 151 0 -3 -5 -12 -6 -21 -2 -9 3
-13 3 -9 -1 4 -4 102 -9 218 -10 117 -2 214 -6 217 -8 7 -8 65 6 87 21 23 15
181 18 190 3 4 -7 12 -7 25 0 22 12 117 12 145 0 15 -7 10 -9 -22 -9 -24 -1
-43 -4 -43 -8 0 -11 -50 -33 -71 -33 -10 0 -21 -4 -24 -10 -3 -5 -27 -10 -53
-10 -26 0 -78 -5 -117 -11 -38 -5 -185 -12 -325 -14 -140 -1 -283 -6 -318 -10
l-62 -8 51 -96 c298 -554 743 -1086 1244 -1486 280 -224 546 -393 870 -555
166 -83 478 -220 501 -220 4 0 14 70 24 175 5 61 19 202 31 315 11 113 25 246
30 295 4 50 13 135 19 190 6 55 13 132 16 170 2 39 9 97 14 130 28 169 69 567
78 755 4 69 10 130 14 135 4 6 9 66 12 133 3 67 8 127 11 132 3 6 10 180 15
387 7 322 12 393 29 477 23 106 26 200 7 174 -6 -8 -22 -17 -36 -21 -14 -3
-36 -8 -49 -11 -14 -3 -29 -2 -35 3 -6 5 -56 14 -111 20 -55 7 -115 15 -134
18 l-34 6 5 -62 c2 -34 10 -67 17 -74 16 -16 136 -16 153 1 18 18 28 15 25
-10 -3 -29 -23 -51 -38 -42 -8 4 -9 3 -5 -4 4 -7 2 -12 -3 -12 -6 0 -11 -7
-11 -15 0 -8 -7 -15 -15 -15 -8 0 -15 -4 -15 -10 0 -5 -6 -10 -14 -10 -8 0
-17 -7 -20 -16 -3 -8 -10 -12 -16 -9 -5 3 -10 2 -10 -4 0 -5 -12 -23 -26 -40
-22 -26 -28 -29 -45 -18 -28 17 -37 57 -44 198 -4 69 -10 131 -14 138 -4 6
-21 13 -37 14 -26 2 -29 -1 -25 -23 1 -13 14 -38 27 -53 23 -27 25 -37 23
-128 -1 -70 -5 -102 -15 -110 -8 -6 -14 -16 -14 -21 0 -18 -67 -78 -87 -78
-11 0 -28 9 -38 20 -15 16 -21 17 -39 8 -27 -15 -45 -12 -73 14 -27 25 -57 17
-73 -21 -8 -21 -20 -30 -41 -33 -36 -6 -56 21 -62 83 -4 47 -24 62 -47 34 -10
-12 -10 -21 -1 -42 6 -14 9 -28 7 -31 -3 -3 -8 3 -12 12 -3 9 -15 16 -26 16
-13 0 -18 -5 -15 -14 6 -16 -27 -57 -60 -74 -29 -16 -179 -17 -198 -2 -12 10
-15 42 -15 174 -1 144 -3 163 -20 184 -15 19 -23 21 -38 13 -11 -6 -23 -7 -27
-3 -3 4 -12 0 -19 -9 -6 -9 -34 -20 -64 -24 -47 -6 -54 -5 -73 17 -16 18 -21
38 -23 103 -2 85 -21 125 -59 125 -25 0 -28 -14 -19 -112 8 -94 5 -111 -27
-145 -16 -17 -26 -20 -44 -14 -43 16 -56 57 -58 178 -1 128 8 118 -121 129
-51 5 -78 3 -78 -3 0 -6 10 -32 21 -59 26 -59 53 -226 41 -261 -4 -12 -96 -11
-138 2 -13 4 -25 1 -33 -9 -28 -34 -80 -8 -81 40 0 24 -28 95 -31 79 -2 -14
-6 -29 -8 -35 -8 -18 -8 -61 0 -65 5 -4 16 -20 25 -36 15 -30 14 -31 -20 -70
-40 -44 -40 -46 -37 -222 l3 -108 -32 16 c-29 15 -31 19 -29 68 3 60 -9 216
-17 228 -3 5 -21 9 -39 9 -52 0 -77 62 -35 88 17 10 20 23 20 88 0 78 11 114
34 114 9 0 13 14 13 43 1 53 -3 60 -28 47 -15 -8 -19 -7 -19 4 0 8 -11 23 -25
34 -14 11 -25 29 -25 39 0 11 -11 25 -25 31 l-26 12 5 -63 c2 -34 5 -108 5
-164 1 -79 4 -103 14 -103 9 0 14 -14 15 -42 2 -60 -9 -74 -65 -77 -22 -2 -41
-278 -21 -310 11 -17 12 -17 29 0 12 12 33 19 59 19 22 0 40 5 40 10 0 6 4 10
8 10 5 0 9 -19 10 -43 l3 -43 -68 7 c-37 5 -80 8 -94 8 -38 1 -47 48 -42 217
2 77 3 149 3 161 0 12 5 25 10 28 5 3 1 14 -8 23 -16 16 -17 28 -9 110 9 83
12 91 30 89 16 -2 23 6 29 33 9 37 12 119 6 126 -3 2 -58 10 -124 19 -203 25
-278 35 -306 40 -25 4 -28 1 -28 -21z m2870 -368 c0 -2 -7 -6 -15 -10 -8 -3
-15 -1 -15 4 0 6 7 10 15 10 8 0 15 -2 15 -4z m-2268 -284 c3 -25 -10 -52 -27
-52 -7 0 -6 39 1 67 8 29 20 21 26 -15z"/>
<path d="M1180 4055 c0 -14 0 -27 0 -30 0 -3 3 -6 8 -7 4 -2 8 12 9 30 1 17
-3 32 -8 32 -5 0 -9 -11 -9 -25z"/>
<path d="M1313 3983 c-10 -27 5 -40 44 -38 69 4 73 5 73 18 0 20 -110 39 -117
20z"/>
<path d="M2959 3998 c-1 -2 -2 -23 -3 -48 -3 -50 7 -70 35 -70 15 0 19 7 18
33 -2 50 -13 82 -32 85 -9 2 -17 2 -18 0z"/>
<path d="M4430 3990 c0 -5 5 -10 10 -10 6 0 10 5 10 10 0 6 -4 10 -10 10 -5 0
-10 -4 -10 -10z"/>
<path d="M1291 3877 c0 -23 4 -60 8 -82 l9 -40 1 46 c0 26 4 60 7 76 4 22 2
32 -10 36 -13 5 -16 -1 -15 -36z"/>
<path d="M2071 3873 c12 -31 48 -93 55 -93 2 0 3 20 2 45 -1 47 -8 58 -46 69
-21 7 -21 6 -11 -21z"/>
<path d="M2253 3815 c6 -60 17 -82 36 -71 6 4 45 9 88 12 43 2 99 6 126 8 36
4 47 1 47 -10 0 -8 4 -14 9 -14 11 0 21 89 12 113 -6 16 -9 16 -19 5 -9 -11
-26 -12 -79 -6 -37 4 -104 11 -147 14 l-79 7 6 -58z"/>
<path d="M2742 3695 c0 -16 2 -22 5 -12 2 9 2 23 0 30 -3 6 -5 -1 -5 -18z"/>
<path d="M2530 3676 c-5 -7 -7 -38 -5 -71 2 -33 4 -70 4 -82 2 -47 19 -20 25
40 4 34 9 76 11 93 4 32 -15 43 -35 20z"/>
<path d="M2734 3562 c-39 -27 -52 -107 -15 -100 9 2 15 11 15 21 -1 9 2 14 7
11 5 -3 9 13 9 35 0 44 0 44 -16 33z"/>
<path d="M5830 3423 c0 -9 -7 -24 -15 -33 -14 -16 -14 -18 5 -23 22 -6 22 -6
26 41 1 17 -2 32 -7 32 -5 0 -9 -8 -9 -17z"/>
<path d="M9268 3363 c7 -3 16 -2 19 1 4 3 -2 6 -13 5 -11 0 -14 -3 -6 -6z"/>
<path d="M5780 3341 c-5 -11 -10 -32 -10 -46 0 -14 -4 -34 -9 -43 -5 -9 -12
-48 -16 -87 -3 -38 -10 -86 -15 -105 -5 -19 -8 -38 -7 -41 1 -3 -4 -13 -12
-22 -12 -15 -11 -17 3 -17 23 0 99 40 109 57 5 8 20 18 33 23 13 5 24 16 24
25 0 18 -17 20 -23 3 -3 -10 -7 -10 -20 0 -13 12 -14 17 -2 46 21 49 13 193
-11 211 -25 19 -31 18 -44 -4z"/>
<path d="M9286 3265 c5 -19 2 -25 -11 -25 -11 0 -15 -5 -11 -15 7 -20 -18 -20
-34 0 -7 9 -15 13 -18 10 -3 -3 -11 0 -19 6 -7 6 -13 8 -13 3 0 -5 -5 -2 -11
6 -8 11 -9 8 -4 -15 4 -16 7 -30 8 -30 1 0 17 -11 36 -24 20 -14 36 -20 38
-14 2 6 13 9 23 6 11 -3 20 0 20 6 0 6 4 10 9 9 12 -4 13 5 5 57 -3 25 -10 45
-15 45 -5 0 -7 -11 -3 -25z"/>
<path d="M8253 3273 c4 -7 0 -13 -10 -16 -10 -3 -3 -5 16 -6 19 0 32 0 30 2
-2 1 -13 9 -23 17 -11 8 -17 10 -13 3z"/>
<path d="M8420 3250 c0 -5 7 -10 15 -10 8 0 15 5 15 10 0 6 -7 10 -15 10 -8 0
-15 -4 -15 -10z"/>
<path d="M5895 3110 c-3 -5 -2 -10 4 -10 5 0 13 5 16 10 3 6 2 10 -4 10 -5 0
-13 -4 -16 -10z"/>
<path d="M9047 2798 c-2 -7 -4 -15 -4 -18 0 -3 -12 -18 -27 -35 -15 -16 -25
-37 -23 -46 5 -19 -55 -84 -66 -73 -4 4 -7 -2 -7 -14 0 -18 6 -22 31 -22 24 0
30 -4 25 -15 -3 -8 -1 -15 4 -15 13 0 13 16 0 40 -7 13 -5 21 6 31 19 16 34
-2 27 -32 -3 -10 0 -19 6 -19 6 0 0 -17 -13 -37 -13 -21 -30 -37 -36 -35 -7 1
-19 -5 -27 -15 -10 -12 -16 -14 -19 -6 -3 7 -12 9 -20 6 -8 -3 -14 1 -14 8 0
11 -2 11 -9 -1 -6 -8 -24 -14 -44 -13 -27 1 -36 -4 -40 -18 -6 -22 -34 -16
-40 9 -4 13 -5 12 -6 -3 0 -12 -14 -28 -30 -38 -31 -18 -66 -23 -56 -8 3 5 1
12 -4 15 -5 3 -7 15 -4 25 3 10 0 22 -6 25 -7 5 -8 1 -4 -10 4 -11 2 -15 -4
-11 -6 4 -25 -7 -43 -23 -30 -28 -35 -29 -72 -20 -31 9 -45 8 -69 -4 -18 -9
-39 -12 -57 -8 -34 9 -82 4 -82 -9 0 -16 -18 -10 -22 7 -3 14 -7 13 -30 -5
-14 -12 -33 -21 -41 -21 -9 0 -18 -13 -22 -29 -3 -16 -13 -32 -21 -35 -10 -4
-14 -21 -14 -57 0 -42 3 -52 20 -56 11 -3 20 -13 20 -22 0 -14 -2 -14 -10 -1
-7 12 -12 12 -22 2 -10 -10 -10 -19 5 -44 14 -25 15 -33 5 -46 -11 -13 -10
-15 5 -9 12 5 17 1 17 -13 0 -19 10 -24 38 -21 10 2 10 -2 0 -18 -7 -12 -16
-21 -19 -21 -8 0 -22 -41 -19 -59 1 -7 -3 -10 -9 -6 -7 3 -11 -2 -11 -14 0
-12 5 -21 10 -21 6 0 10 5 10 11 0 5 5 7 10 4 6 -4 10 -12 8 -18 -3 -19 12
-57 23 -57 6 0 9 -8 8 -17 -3 -37 1 -45 20 -40 13 3 26 -5 41 -26 13 -16 16
-26 9 -22 -12 8 -12 6 0 -8 7 -9 17 -14 22 -11 5 3 9 1 9 -5 0 -5 -8 -12 -17
-14 -14 -4 -12 -5 5 -6 20 -1 27 -11 23 -35 -1 -5 2 -12 7 -15 5 -3 21 -27 36
-53 15 -27 31 -48 36 -48 11 0 132 136 237 267 163 204 297 401 432 635 63
110 72 147 46 182 -8 11 -15 37 -15 57 0 32 -7 43 -42 73 -45 39 -53 42 -61
24z m-77 -348 c0 -5 -8 -10 -17 -10 -15 0 -16 2 -3 10 19 12 20 12 20 0z
m-440 -50 c0 -22 -35 -28 -59 -9 l-23 19 41 0 c23 0 41 -4 41 -10z m-33 -72
c-3 -8 -6 -5 -6 6 -1 11 2 17 5 13 3 -3 4 -12 1 -19z"/>
<path d="M9215 2659 c-4 -6 -5 -12 -2 -15 2 -3 7 2 10 11 7 17 1 20 -8 4z"/>
<path d="M8763 2527 c1 -7 -7 -12 -17 -12 -11 0 -21 -6 -24 -14 -5 -16 35 -6
55 14 10 11 10 14 -2 19 -8 3 -14 0 -12 -7z"/>
<path d="M8676 2507 c3 -10 9 -15 12 -12 3 3 0 11 -7 18 -10 9 -11 8 -5 -6z"/>
<path d="M8685 2471 c-3 -5 0 -13 6 -17 7 -4 9 -3 5 4 -3 5 0 13 6 15 9 4 10
6 1 6 -6 1 -14 -3 -18 -8z"/>
<path d="M8327 1675 c-4 -8 -2 -17 3 -20 6 -4 10 3 10 14 0 25 -6 27 -13 6z"/>
<path d="M8160 1530 c0 -5 7 -10 16 -10 8 0 12 5 9 10 -3 6 -10 10 -16 10 -5
0 -9 -4 -9 -10z"/>
<path d="M8238 1523 c6 -2 18 -2 25 0 6 3 1 5 -13 5 -14 0 -19 -2 -12 -5z"/>
<path d="M8071 1493 c0 -7 -10 -13 -21 -13 -11 0 -20 -4 -20 -9 0 -12 59 -20
66 -9 3 4 1 8 -5 8 -5 0 -12 8 -14 18 -3 9 -5 11 -6 5z"/>
<path d="M8185 1466 c2 -17 4 -47 5 -66 1 -19 4 -28 7 -18 5 19 33 33 33 16 0
-6 -8 -20 -17 -31 -18 -19 -17 -20 5 -8 13 7 26 10 30 7 3 -3 0 -6 -6 -6 -7 0
-12 -8 -12 -17 1 -15 4 -14 20 6 24 28 25 41 3 41 -14 0 -14 2 3 18 26 24 21
76 -7 67 -13 -4 -17 -2 -14 7 4 9 -4 13 -23 14 -26 1 -29 -2 -27 -30z"/>
<path d="M8211 1324 c0 -11 3 -14 6 -6 3 7 2 16 -1 19 -3 4 -6 -2 -5 -13z"/>
</g>
</svg>
